<?xml version="1.0" encoding="UTF-8" standalone="no"?>
<!DOCTYPE svg PUBLIC "-//W3C//DTD SVG 1.1//EN" "http://www.w3.org/Graphics/SVG/1.1/DTD/svg11.dtd">
<svg version="1.1" xmlns="http://www.w3.org/2000/svg" xmlns:xlink="http://www.w3.org/1999/xlink" preserveAspectRatio="xMidYMid meet" viewBox="0 0 640 640" width="640" height="640"><defs><path d="M641.36 119.6C641.36 119.6 641.36 119.6 641.36 119.6C641.36 359.84 641.36 493.31 641.36 520C641.36 520 641.36 520 641.36 520C256.02 520 41.94 520 -0.88 520C-0.88 520 -0.88 520 -0.88 520C-0.88 279.76 -0.88 146.29 -0.88 119.6C-0.88 119.6 -0.88 119.6 -0.88 119.6C384.46 119.6 598.54 119.6 641.36 119.6Z" id="g1gYXvSQXP"></path><linearGradient id="gradientbZyxd90ev" gradientUnits="userSpaceOnUse" x1="59.58" y1="580.46" x2="580.9" y2="59.14"><stop style="stop-color: #f52985;stop-opacity: 1" offset="0%"></stop><stop style="stop-color: #000041;stop-opacity: 1" offset="100%"></stop></linearGradient><path d="M433.72 144.78L-1.19 115.24C-1.32 115.19 -1.39 115.16 -1.4 115.15C-1.75 114.95 -2.07 115 -2.31 114.84C-9.92 112.96 -19.32 115.36 -29.17 122.53C-51.93 139.1 -68.42 175.5 -66.01 203.58C-64.97 216.39 -60.09 225.28 -52.94 229.61C-31.88 249 73.43 345.99 262.98 520.58L433.72 144.78Z" id="c3RvHhYVNH"></path><linearGradient id="gradienta3zJXTZjUL" gradientUnits="userSpaceOnUse" x1="-53.15" y1="150.21" x2="348.37" y2="332.68"><stop style="stop-color: #f6f6f7;stop-opacity: 0.4" offset="0%"></stop><stop style="stop-color: #f6f6f7;stop-opacity: 0" offset="100%"></stop></linearGradient><path d="M425.76 461.2C425.76 461.92 425.84 462.72 425.92 463.44C425.92 463.46 425.92 463.58 425.92 463.6C426 463.92 426 464.16 426 464.4C427.36 470.8 433.04 477.04 442.88 482C465.84 493.44 503.12 493.44 526.08 482C536.8 476.64 542.56 469.76 543.28 462.72C543.28 462.71 543.28 462.65 543.28 462.64C543.36 462.16 543.36 461.68 543.36 461.2C544.88 438.84 552.48 327.02 566.16 125.76L397.04 125.76C414.27 327.02 423.85 438.84 425.76 461.2Z" id="ayiB42bVy"></path><linearGradient id="gradientatLUFjaQI" gradientUnits="userSpaceOnUse" x1="481.6" y1="490.58" x2="481.6" y2="125.76"><stop style="stop-color: #f6f6f7;stop-opacity: 0.33" offset="0%"></stop><stop style="stop-color: #f6f6f7;stop-opacity: 0" offset="100%"></stop></linearGradient><path d="M544.72 424.24C577.92 444.56 577.92 477.44 544.72 497.76C528.08 507.92 506.32 512.96 484.56 512.96C462.8 512.96 441.04 507.84 424.4 497.76C391.2 477.44 391.2 444.56 424.4 424.24C441.04 414.08 462.8 409.04 484.56 409.04C484.56 409.04 484.56 409.04 484.56 409.04C513.57 412.45 533.63 417.52 544.72 424.24ZM423.2 422.24C406.4 432.48 397.12 446.32 397.12 461.04C397.12 475.76 406.4 489.6 423.2 499.84C439.6 509.92 461.44 515.44 484.56 515.44C507.68 515.44 529.52 509.92 545.92 499.84C562.72 489.6 572 475.76 572 461.04C572 446.32 562.72 432.48 545.92 422.24C529.52 412.16 507.76 406.64 484.56 406.64C484.56 406.64 484.56 406.64 484.56 406.64C454.59 410.32 434.13 415.52 423.2 422.24Z" id="b2PTzmLMoX"></path><linearGradient id="gradientbHdohGJ6D" gradientUnits="userSpaceOnUse" x1="397.12" y1="461.04" x2="572" y2="461.04"><stop style="stop-color: #3e4ee0;stop-opacity: 1" offset="0%"></stop><stop style="stop-color: #434fdf;stop-opacity: 1" offset="13.69%"></stop><stop style="stop-color: #5353dc;stop-opacity: 1" offset="30.65%"></stop><stop style="stop-color: #6c5ad7;stop-opacity: 1" offset="49.33%"></stop><stop style="stop-color: #8f63d0;stop-opacity: 1" offset="69.27%"></stop><stop style="stop-color: #bc6fc7;stop-opacity: 1" offset="89.98%"></stop><stop style="stop-color: #d475c2;stop-opacity: 1" offset="100%"></stop></linearGradient><path d="M484.64 429.84C469.2 429.84 454.56 432.96 443.6 438.72C432.16 444.72 425.84 452.72 425.84 461.44C425.84 462.48 425.92 463.44 426.08 464.4C427.44 470.8 433.12 477.04 442.96 482C465.92 493.44 503.2 493.44 526.16 482C536.88 476.64 542.64 469.76 543.36 462.72C543.36 462.71 543.36 462.65 543.36 462.64C543.36 462.24 543.44 461.84 543.44 461.44C543.44 452.72 537.12 444.64 525.68 438.72C514.72 432.96 500.08 429.84 484.64 429.84Z" id="b2kFBgVrVf"></path><linearGradient id="gradientaaEu1XOuJ" gradientUnits="userSpaceOnUse" x1="458.05" y1="431.68" x2="511.87" y2="490.69"><stop style="stop-color: #3e4ee0;stop-opacity: 1" offset="0%"></stop><stop style="stop-color: #434fdf;stop-opacity: 1" offset="13.69%"></stop><stop style="stop-color: #5353dc;stop-opacity: 1" offset="30.65%"></stop><stop style="stop-color: #6c5ad7;stop-opacity: 1" offset="49.33%"></stop><stop style="stop-color: #8f63d0;stop-opacity: 1" offset="69.27%"></stop><stop style="stop-color: #bc6fc7;stop-opacity: 1" offset="89.98%"></stop><stop style="stop-color: #d475c2;stop-opacity: 1" offset="100%"></stop></linearGradient><path d="M529.84 436.8C554.8 450.24 554.8 471.92 529.84 485.36C517.36 492.08 500.96 495.44 484.64 495.44C468.24 495.44 451.92 492.08 439.44 485.36C414.48 471.92 414.48 450.24 439.44 436.8C451.92 430.08 468.24 426.72 484.64 426.72C484.64 426.72 484.64 426.72 484.64 426.72C506.45 428.96 521.52 432.32 529.84 436.8ZM437.04 432.24C423.2 439.68 415.6 449.84 415.6 461.04C415.6 472.16 423.2 482.4 437.04 489.84C449.84 496.72 466.8 500.48 484.64 500.48C502.56 500.48 519.44 496.72 532.32 489.84C546.16 482.4 553.76 472.24 553.76 461.04C553.76 449.84 546.16 439.68 532.32 432.24C519.44 425.44 502.56 421.6 484.64 421.6C484.64 421.6 484.64 421.6 484.64 421.6C461.44 424.11 445.57 427.65 437.04 432.24Z" id="bdhexMnBO"></path><linearGradient id="gradientd2pbJfVhtY" gradientUnits="userSpaceOnUse" x1="515.22" y1="482.82" x2="431.58" y2="423.16"><stop style="stop-color: #3e4ee0;stop-opacity: 1" offset="0%"></stop><stop style="stop-color: #434fdf;stop-opacity: 1" offset="13.69%"></stop><stop style="stop-color: #5353dc;stop-opacity: 1" offset="30.65%"></stop><stop style="stop-color: #6c5ad7;stop-opacity: 1" offset="49.33%"></stop><stop style="stop-color: #8f63d0;stop-opacity: 1" offset="69.27%"></stop><stop style="stop-color: #bc6fc7;stop-opacity: 1" offset="89.98%"></stop><stop style="stop-color: #d475c2;stop-opacity: 1" offset="100%"></stop></linearGradient><path d="M515.44 258.08C493.92 253.28 469.76 253.6 448.56 259.12C448.56 262.74 448.56 291.66 448.56 295.28C469.76 289.84 493.92 289.44 515.44 294.24C515.44 287.01 515.44 261.7 515.44 258.08Z" id="a35xoQ7TmP"></path><path d="M590.56 319.52C590.56 313.16 590.56 262.28 590.56 255.92C589.36 255.2 588.16 254.48 586.88 253.68C559.36 237.76 523.12 230 487.04 230.4C487.04 236.76 487.04 287.64 487.04 294C523.12 293.68 559.36 301.44 586.88 317.28C588.16 318 589.36 318.72 590.56 319.52Z" id="b3zQUD8KDZ"></path><path d="M425.92 305.92L421.92 305.92C421.3 305.63 420.95 305.47 420.88 305.44C418.4 302.56 421.92 296 423.84 296.16C423.94 296.23 424.42 296.58 425.28 297.2L425.92 305.92Z" id="efTA4eWiJ"></path><path d="M422 296C422 296 419.84 293.92 417.04 292C416.96 291.92 416.88 291.84 416.72 291.76C416 291.28 415.2 290.8 414.48 290.48C414.08 290.24 413.44 289.92 412.8 289.76C412.56 289.68 412.32 289.6 412.16 289.6C412.15 289.6 412.13 289.6 412.08 289.6C412.08 289.6 412.08 289.6 412.08 289.6C411.52 289.52 411.04 289.44 410.48 289.52C408.16 289.84 402.08 290.16 400.72 290.48C399.68 290.8 399.12 291.76 399.76 292.32C399.92 292.48 400.24 292.64 400.56 292.64C399.76 292.96 398.72 293.12 398.4 293.84C397.92 294.96 399.36 295.52 400.32 295.52C400.32 295.52 397.84 296.72 400.56 297.52C401.36 297.76 402.4 297.6 403.6 297.6C403.6 297.6 401.12 298.56 402.72 299.36C404.32 300.16 408.32 299.36 410.08 298.8C411.12 298.48 412.96 300.24 414.96 301.36C417.36 302.72 424.88 307.52 424.88 307.52C425.11 306.94 426.26 304.06 428.32 298.88L427.12 298.24C424.05 296.9 422.34 296.15 422 296Z" id="a2dTAt4SZI"></path><path d="M416.64 291.76C415.92 291.28 415.12 290.8 414.4 290.48C414 290.24 413.36 289.92 412.72 289.76C412.48 289.68 412.24 289.6 412.08 289.6C412.07 289.6 412.05 289.6 412 289.6C412 289.6 412 289.6 412 289.6C411.44 289.52 410.96 289.44 410.4 289.52C408.08 289.84 402 290.16 400.64 290.48C399.6 290.8 399.04 291.76 399.68 292.32C399.6 292.16 399.36 291.68 400.08 291.36C400.88 291.04 410.32 290.32 410.96 290.64C412.8 291.36 414.4 293.36 413.6 294.16C412.72 295.12 406.24 291.04 405.36 294.08C404.96 295.52 410.8 297.44 412 298.08C413.68 298.96 414.32 300.24 419.6 300.24C419.6 300.24 423.92 302 425.12 302C425.92 302 426.08 300.64 426.88 298.4C426.55 298.23 424.9 297.41 421.92 295.92C420.37 294.37 418.61 292.99 416.64 291.76Z" id="a1m1dZ5k90"></path><path d="M568 317.28C565.2 303.44 554.72 290.96 537.68 281.12C513.12 266.96 478.08 260.64 443.92 264.32C443.6 264.32 443.36 264.64 443.36 264.96C443.36 265.28 443.68 265.52 444 265.52C477.92 261.92 512.72 268.16 537.04 282.16C553.76 291.84 564.08 304 566.8 317.52C566.88 317.84 567.12 318 567.36 318C567.44 318.08 567.52 318.08 567.52 318C567.84 317.92 568.08 317.6 568 317.28Z" id="c171zBJO0X"></path><linearGradient id="gradientb2h1b3lPzB" gradientUnits="userSpaceOnUse" x1="567.85" y1="317.84" x2="451.51" y2="250.66"><stop style="stop-color: #6e3aff;stop-opacity: 1" offset="0%"></stop><stop style="stop-color: #ffffff;stop-opacity: 1" offset="100%"></stop></linearGradient><path d="M448.96 302.4C443.36 304.96 428.24 298.16 423.84 296.08C424.56 296.56 425.12 297.6 425.2 299.04C425.28 300.24 425.12 301.52 424.64 302.56C424.64 302.56 424.64 302.56 424.64 302.56C424.16 303.76 423.44 304.72 422.64 305.2C422 305.52 421.36 305.52 420.88 305.28C420.88 305.28 420.88 305.28 420.88 305.28C420.88 305.28 439.36 316.56 449.44 316.48C460 316.4 462.32 310.96 464.16 306.08C465.6 302.24 472.8 283.52 475.76 275.92C476.56 273.92 477.04 272.72 477.04 272.72C477.04 272.72 464.24 273.68 459.6 284.16C455.6 293.04 454.96 299.68 448.96 302.4Z" id="c14gLo4d4z"></path><linearGradient id="gradientdcmQomYeX" gradientUnits="userSpaceOnUse" x1="467.31" y1="266.41" x2="431.42" y2="320.84"><stop style="stop-color: #3e4ee0;stop-opacity: 1" offset="0%"></stop><stop style="stop-color: #434fdf;stop-opacity: 1" offset="13.69%"></stop><stop style="stop-color: #5353dc;stop-opacity: 1" offset="30.65%"></stop><stop style="stop-color: #6c5ad7;stop-opacity: 1" offset="49.33%"></stop><stop style="stop-color: #8f63d0;stop-opacity: 1" offset="69.27%"></stop><stop style="stop-color: #bc6fc7;stop-opacity: 1" offset="89.98%"></stop><stop style="stop-color: #d475c2;stop-opacity: 1" offset="100%"></stop></linearGradient><path d="M448.96 302.4C443.36 304.96 428.24 298.16 423.92 296.08C424.64 296.56 425.2 297.6 425.28 299.04C425.36 300.24 425.12 301.52 424.72 302.56C424.72 302.56 424.72 302.56 424.72 302.56C424.72 302.56 441.76 313.12 451.76 310.16C461.76 307.2 463.04 302.88 463.04 302.88C464.3 300.19 474.42 278.69 475.68 276C476.48 274 476.96 272.8 476.96 272.8C476.96 272.8 464.24 273.68 459.6 284.16C455.6 293.04 454.96 299.68 448.96 302.4Z" id="e4O9d2VVT"></path><linearGradient id="gradientb13WX92iRd" gradientUnits="userSpaceOnUse" x1="423.85" y1="291.74" x2="476.95" y2="291.74"><stop style="stop-color: #3e4ee0;stop-opacity: 1" offset="0%"></stop><stop style="stop-color: #434fdf;stop-opacity: 1" offset="13.69%"></stop><stop style="stop-color: #5353dc;stop-opacity: 1" offset="30.65%"></stop><stop style="stop-color: #6c5ad7;stop-opacity: 1" offset="49.33%"></stop><stop style="stop-color: #8f63d0;stop-opacity: 1" offset="69.27%"></stop><stop style="stop-color: #bc6fc7;stop-opacity: 1" offset="89.98%"></stop><stop style="stop-color: #d475c2;stop-opacity: 1" offset="100%"></stop></linearGradient><path d="M465.92 462.4C466.72 463.2 471.36 462.72 474.16 461.28C476.96 459.84 479.52 456.48 479.52 455.6C479.52 454.72 480.16 447.12 480.8 447.12C481.44 447.12 481.52 455.6 481.52 455.6C481.73 455.6 483.39 455.6 483.6 455.6C483.6 455.6 483.6 445.44 483.6 440C483.6 434.56 480.32 433.6 480.32 433.6C479.59 434.87 475.94 441.22 469.36 452.64C466.48 458.56 465.33 461.81 465.92 462.4Z" id="aqwifU5M1"></path><linearGradient id="gradientd2sytdnqrO" gradientUnits="userSpaceOnUse" x1="474.45" y1="462.79" x2="474.45" y2="433.52"><stop style="stop-color: #5f7095;stop-opacity: 1" offset="0%"></stop><stop style="stop-color: #45537f;stop-opacity: 1" offset="34.42%"></stop><stop style="stop-color: #2a3469;stop-opacity: 1" offset="76.33%"></stop><stop style="stop-color: #202961;stop-opacity: 1" offset="100%"></stop></linearGradient><path d="M470 393.68C470 393.68 470.32 399.68 470.64 407.12C470.64 407.12 470.64 407.12 470.64 407.12C471.04 416.88 471.52 428.96 471.52 433.04C471.52 440.08 471.04 451.44 468.72 453.84C467.68 454.88 468.24 455.84 469.36 456.32C470.88 457.04 473.44 456.88 475.28 455.12C478.48 451.92 477.76 444.96 480.24 439.36C482 435.44 480.8 435.44 480.8 432.72C480.8 429.84 486 419.44 486.08 392.48C482.86 392.72 471.61 393.56 470 393.68Z" id="e45WYRw5D1"></path><path d="M489.76 458.16C489.76 461.52 487.6 474.16 492.4 474.16C497.2 474.16 500.72 468.32 501.44 465.12C502.16 461.92 500.8 454.64 500.8 448.72C500.8 442.8 498.8 442.96 498.8 442.96C498.27 443.06 495.63 443.54 490.88 444.4C490.13 451.33 489.76 455.92 489.76 458.16Z" id="biMD6kGTt"></path><linearGradient id="gradienta2tnzugCHd" gradientUnits="userSpaceOnUse" x1="484.85" y1="467.47" x2="504.32" y2="448"><stop style="stop-color: #5f7095;stop-opacity: 1" offset="0%"></stop><stop style="stop-color: #45537f;stop-opacity: 1" offset="34.42%"></stop><stop style="stop-color: #2a3469;stop-opacity: 1" offset="76.33%"></stop><stop style="stop-color: #202961;stop-opacity: 1" offset="100%"></stop></linearGradient><path d="M485.36 392.32C485.36 392.32 486.64 403.84 488 416.08C488 416.08 488 416.08 488 416.08C489.44 429.2 490.96 443.2 490.96 444.4C490.96 445.68 490.64 451.92 490.72 457.28C490.8 461.76 490.88 465.44 493.44 465.68C493.84 465.76 494.24 465.68 494.64 465.68C497.6 465.2 499.12 461.68 499.12 458.08C499.12 454.08 499.84 446.24 499.12 443.68C498.4 441.12 499.52 434 499.52 430.88C499.52 426.4 504.56 407.68 500.8 392.48C497.71 392.45 486.9 392.34 485.36 392.32Z" id="d2oRAah1f8"></path><path d="M503.76 334.48C502.23 334.47 494.61 334.42 480.88 334.32C473.54 334.66 469.46 334.84 468.64 334.88C468.64 334.88 460.88 344.48 462.48 365.28C463.68 380.64 466.72 391.2 468.16 395.6C468.16 395.6 468.16 395.6 468.16 395.6C468.64 397.12 468.96 397.92 468.96 397.92C468.96 397.92 470.56 405.52 486.56 405.52C502.56 405.52 503.04 397.92 503.04 397.92C503.04 397.92 509.6 375.92 509.68 355.76C509.68 342.24 504.94 338.74 503.76 334.48Z" id="jz9bE2OfA"></path><linearGradient id="gradientc2UnOvzDJo" gradientUnits="userSpaceOnUse" x1="485.21" y1="275.77" x2="486.4" y2="403.67"><stop style="stop-color: #3e4ee0;stop-opacity: 1" offset="0%"></stop><stop style="stop-color: #434fdf;stop-opacity: 1" offset="13.69%"></stop><stop style="stop-color: #5353dc;stop-opacity: 1" offset="30.65%"></stop><stop style="stop-color: #6c5ad7;stop-opacity: 1" offset="49.33%"></stop><stop style="stop-color: #8f63d0;stop-opacity: 1" offset="69.27%"></stop><stop style="stop-color: #bc6fc7;stop-opacity: 1" offset="89.98%"></stop><stop style="stop-color: #d475c2;stop-opacity: 1" offset="100%"></stop></linearGradient><path d="M496.16 272.4C496.16 272.4 478.24 270.08 473.68 274.48C470.32 277.68 462.48 291.2 461.36 297.44C461.28 297.68 461.28 298 461.28 298.32C460.88 302.08 461.68 308.4 463.12 315.12C464.56 322.08 466.56 329.44 468.32 334.48C468.32 334.48 468.96 338.16 473.52 340.4C480.4 343.76 491.68 343.68 498.56 340.4C502.08 338.8 503.52 336.72 503.76 334.48C503.76 334.4 504.96 324.32 506 313.52C506.96 303.84 507.92 293.52 507.92 289.44C508 285.2 505.2 281.04 502.32 277.92C499.28 274.64 497.39 273.5 496.16 272.4Z" id="blsyVFkv5"></path><linearGradient id="gradienta1NL5FXEOy" gradientUnits="userSpaceOnUse" x1="484.36" y1="274.32" x2="485.56" y2="403.68"><stop style="stop-color: #3e4ee0;stop-opacity: 1" offset="0%"></stop><stop style="stop-color: #434fdf;stop-opacity: 1" offset="13.69%"></stop><stop style="stop-color: #5353dc;stop-opacity: 1" offset="30.65%"></stop><stop style="stop-color: #6c5ad7;stop-opacity: 1" offset="49.33%"></stop><stop style="stop-color: #8f63d0;stop-opacity: 1" offset="69.27%"></stop><stop style="stop-color: #bc6fc7;stop-opacity: 1" offset="89.98%"></stop><stop style="stop-color: #d475c2;stop-opacity: 1" offset="100%"></stop></linearGradient><path d="M473.68 274.56C470.32 277.76 462.48 291.28 461.36 297.52C461.28 297.76 461.28 298.08 461.2 298.4C462 298.08 467.36 296.16 474.48 299.52C482.08 303.12 491.2 305.92 492.08 311.68C492.8 316 499.12 290.8 502.24 278C499.28 274.64 496.16 272.48 496.16 272.48C491.66 272.9 478.24 270.16 473.68 274.56Z" id="aD4uQzmsw"></path><linearGradient id="gradientb4G59C44QT" gradientUnits="userSpaceOnUse" x1="461.29" y1="292.02" x2="502.33" y2="292.02"><stop style="stop-color: #3e4ee0;stop-opacity: 1" offset="0%"></stop><stop style="stop-color: #434fdf;stop-opacity: 1" offset="13.69%"></stop><stop style="stop-color: #5353dc;stop-opacity: 1" offset="30.65%"></stop><stop style="stop-color: #6c5ad7;stop-opacity: 1" offset="49.33%"></stop><stop style="stop-color: #8f63d0;stop-opacity: 1" offset="69.27%"></stop><stop style="stop-color: #bc6fc7;stop-opacity: 1" offset="89.98%"></stop><stop style="stop-color: #d475c2;stop-opacity: 1" offset="100%"></stop></linearGradient><path d="M495.6 279.44C493.76 282.88 480.56 295.76 476.88 285.84C474.08 278.24 479.68 272.4 479.68 272.4C480.81 272.43 486.43 272.59 496.56 272.88C497.15 274.96 496.83 277.15 495.6 279.44Z" id="f2szpa5o5x"></path><path d="M497.2 205.2C490.96 205.2 485.68 209.28 484 214.96C483.6 216.24 483.36 217.6 483.36 219.04C483.36 226.72 489.6 232.88 497.2 232.88C504.88 232.88 511.04 226.72 511.04 219.04C511.12 212.8 506.88 207.44 501.12 205.76C499.92 205.36 498.56 205.2 497.2 205.2Z" id="b7vCvRallm"></path><path d="M496.56 215.04C491.2 218.64 483.6 217.68 483.6 217.68C483.2 218.96 489.6 232.96 497.2 232.96C504.88 232.96 511.04 226.8 511.04 219.12C511.12 212.8 506.88 207.44 501.12 205.76C501.52 206.88 501.12 211.92 496.56 215.04Z" id="b39vo5NzpL"></path><path d="M494.08 276.4C495.76 275.44 496.56 274.08 496.56 272.8C496.56 271.66 496.56 265.95 496.56 255.68L479.68 255.68C479.68 265.95 479.68 271.66 479.68 272.8C479.6 274.16 480.48 275.44 482.16 276.4C485.44 278.32 490.8 278.32 494.08 276.4Z" id="m3qIvTU7g0"></path><path d="M487.2 216.88C466.56 218.72 466.32 236 466.32 236C467.12 235.64 471.12 233.86 478.32 230.64L483.04 232.8L492.32 238.72L493.04 244L493.04 244C493.23 245.58 493.34 246.46 493.36 246.64C493.36 246.64 493.36 246.64 493.36 246.72C493.44 247.12 493.52 247.6 493.52 248.08C493.56 248.39 493.78 249.97 494.16 252.8C494.88 258.46 495.28 261.61 495.36 262.24C495.36 262.24 502.08 261.04 506.4 249.28C510.4 238.56 508.32 218.88 492.16 216.96C490.64 216.8 488.96 216.8 487.2 216.88Z" id="j3ZQ92NLix"></path><path d="M497.2 247.36C497.12 247.52 497.04 247.6 497.04 247.6C497.04 247.6 496.24 245.12 494.48 242.08C493.44 240.24 492.16 238.16 490.48 236.24C490 235.68 489.44 235.12 488.88 234.56C483.84 229.76 476.48 227.04 466.64 234.4C466.64 234.4 465.52 240.88 465.76 248.32C465.76 248.32 465.76 248.48 465.76 248.72C466.08 256.8 468 265.84 474.72 269.52C475.44 269.92 476.16 270.24 476.96 270.48C481.12 271.76 486.4 268.8 489.6 266.8C490.72 266.08 491.84 265.36 492.8 264.56C493.68 263.84 494.48 263.12 495.12 262.32C495.12 262.32 495.12 262.24 495.2 262.24C496.16 261.12 496.72 259.84 496.72 258.56C496.8 258.56 500.72 258.48 501.76 249.44C502.32 245.44 500.56 244.72 499.04 245.44C498.24 245.84 497.52 246.88 497.2 247.36Z" id="a1NragaqhH"></path><path d="M492 238.56C492 238.4 492 238.16 491.92 238C491.76 236.88 491.6 235.76 491.44 234.88C491.44 234.88 491.44 234.88 491.44 234.88C491.12 233.44 490.72 232.24 490.32 231.12C489.52 229.28 488.64 227.92 487.76 226.96C486.48 225.6 485.28 224.88 484.56 224.56C484.56 224.56 484.56 224.56 484.56 224.56C484.08 224.4 483.76 224.32 483.76 224.32C483.76 224.32 474.16 224.08 468.4 230C468.08 230.4 467.68 230.8 467.44 231.2C466.72 232.24 466.16 233.36 465.76 234.56C465.76 234.56 465.76 234.56 465.76 234.64C464.72 237.68 464.8 240.8 464.88 241.92C464.88 242.24 464.96 242.4 464.96 242.4C464.96 242.4 465.28 242.96 466.08 243.76C467.36 245.12 470.16 247.36 475.28 248.4C477.52 248.88 479.6 249.36 481.52 249.44C481.6 249.44 481.68 249.12 481.76 248.56C482 247.28 482.24 244.96 482.4 242.88C482.48 242 482.48 241.2 482.56 240.56C482.56 240.32 482.56 240.08 482.64 239.84C482.64 239.2 482.72 238.8 482.72 238.8C482.72 238.8 482.72 239.12 482.8 239.76C482.8 239.76 482.8 239.76 482.8 239.76C482.8 240 482.8 240.24 482.88 240.48C482.88 241.12 482.96 241.92 483.04 242.72C483.2 244.88 483.36 247.44 483.52 248.64C483.6 249.12 483.68 249.36 483.68 249.36C485.04 249.28 486.24 249.12 487.28 248.88C490.24 248.24 492.08 247.28 492.08 247.28C492.16 245.92 492.24 244.56 492.24 243.36C492.16 242.08 492.16 241.04 492.08 240.08C492.08 239.52 492 239.04 492 238.56Z" id="m6QvT85LeD"></path><path d="M495.68 240.16L494.56 235.04L488.96 234.48L487.68 234.32C490.22 239.31 491.64 242.09 491.92 242.64C491.92 242.64 492.4 243.44 492.8 244.56C493.04 245.2 493.2 245.84 493.36 246.64C493.84 249.76 493.68 253.52 494.88 253.52C496.8 253.6 497.2 247.36 497.2 247.28C497.2 247.28 497.2 247.28 497.2 247.28L495.68 240.16Z" id="gGkVe4dDn"></path><path d="M494.88 253.6C495.28 253.6 495.52 253.36 495.84 253.04C495.75 253.07 495.33 253.2 494.56 253.44C494.72 253.55 494.83 253.6 494.88 253.6Z" id="a6i6vRoD3"></path><path d="M501.92 224.96C504.4 229.76 506.64 243.36 501.6 251.28C500.32 258.64 496.88 258.72 496.8 258.72C496.8 260 496.32 261.12 495.44 262.24C495.44 262.24 502.16 260.96 506.48 249.28C510.4 238.56 508.32 218.88 492.16 216.96C496.48 219.04 500.16 221.68 501.92 224.96Z" id="a6lw5h19B"></path><path d="M471.44 432.96C471.44 440 470.96 451.36 468.64 453.76C467.6 454.8 468.16 455.76 469.28 456.24C472.4 453.92 475.6 449.04 477.04 439.92C479.84 422.16 471.04 407.68 470.56 407.04C470.96 416.8 471.44 428.88 471.44 432.96Z" id="c3YXDEypC"></path><path d="M487.92 416C489.36 429.12 490.88 443.12 490.88 444.32C490.88 445.6 490.64 451.84 490.64 457.2C490.72 461.68 490.8 465.36 493.36 465.6C493.76 465.68 494.16 465.6 494.56 465.6C497.2 458.24 496.32 443.84 496.32 432.48C496.32 418.56 489.6 419.3 487.92 416Z" id="b3iNk416il"></path><path d="M493.76 240.8C493.36 240.56 492.96 240.4 492.48 240.16C492.4 240.08 492.24 240.08 492.08 240C491.6 239.84 490.96 239.68 490.4 239.6C489.76 239.52 489.04 239.52 488.24 239.52C486.88 239.6 484.96 239.92 482.72 240.16C482.64 240.16 482.56 240.16 482.48 240.24C479.04 240.64 475.12 240.88 471.84 239.92C469.04 239.12 467.44 237.44 466.48 236.08C466.47 236.07 466.41 236.01 466.4 236C466.32 235.92 466.32 235.84 466.32 235.76C465.92 235.2 465.76 234.72 465.6 234.32C465.6 234.32 465.6 234.32 465.6 234.4C464.56 237.44 464.4 240.56 464.48 241.68C464.72 241.92 465.36 242.24 465.92 242.64C465.92 242.64 465.92 242.64 465.92 242.64C468 244.32 472.08 247.12 476.64 247.68C478.4 247.84 480.08 248.08 481.6 248.16C482.24 248.24 482.8 248.24 483.36 248.32C484.88 248.48 486.16 248.48 487.2 248.56C488.4 248.64 489.12 248.64 489.12 248.64C489.34 248.84 490.46 249.86 492.48 251.68L493.76 249.76L493.84 249.68L496.4 245.76L496.8 245.12C496.99 244.83 497.1 244.67 497.12 244.64C497.04 244.4 496.8 243.68 496.24 242.96C495.76 242.24 494.96 241.44 493.76 240.8Z" id="azExMpygu"></path><linearGradient id="gradientc91lv2zvZ" gradientUnits="userSpaceOnUse" x1="480.79" y1="251.75" x2="480.79" y2="234.39"><stop style="stop-color: #cfd1d2;stop-opacity: 1" offset="0%"></stop><stop style="stop-color: #c4c6c7;stop-opacity: 1" offset="25.840000000000003%"></stop><stop style="stop-color: #a7a9ab;stop-opacity: 1" offset="70.98%"></stop><stop style="stop-color: #919395;stop-opacity: 1" offset="100%"></stop></linearGradient><path d="M488.72 251.84C488.72 251.84 482.96 251.6 476.32 250.88C469.68 250.08 464.56 241.44 464.56 241.44C464.57 241.38 464.63 240.86 464.64 240.8C464.64 240.8 466.64 242.32 473.28 244.72C478.64 246.64 483.92 245.52 487.52 245.52C491.36 245.52 495.52 247.6 495.52 248.72C495.29 249.13 494.14 251.18 492.08 254.88C490.06 253.06 488.94 252.04 488.72 251.84Z" id="c1KgunZWNH"></path><path d="M489.28 218.24C485.12 216.96 479.12 216.4 477.28 216.8C475.04 217.28 473.52 218.64 473.04 219.92C472.56 221.2 472.24 223.04 472.96 222.32C473.04 222.32 473.12 222.24 473.12 222.16C473.92 221.44 475.76 220.32 475.76 220.32C476 220.24 476.32 220.16 476.64 220.08C478.96 219.6 483.44 220 487.52 221.44C492 222.96 494.88 225.68 496 227.04C499.76 231.44 498 246.08 498 246.08C498.31 246.02 500.81 245.5 501.12 245.44C501.04 245.44 502.56 231.44 499.84 226C498.32 222.96 493.52 219.52 489.28 218.24Z" id="b74pwH1L2e"></path><linearGradient id="gradientc18cD3xMmP" gradientUnits="userSpaceOnUse" x1="472.61" y1="231.38" x2="501.48" y2="231.38"><stop style="stop-color: #919395;stop-opacity: 1" offset="0%"></stop><stop style="stop-color: #babcbe;stop-opacity: 1" offset="73.11999999999999%"></stop><stop style="stop-color: #b7b9bb;stop-opacity: 1" offset="82.95%"></stop><stop style="stop-color: #adafb1;stop-opacity: 1" offset="90.85%"></stop><stop style="stop-color: #9c9ea0;stop-opacity: 1" offset="98.05%"></stop><stop style="stop-color: #96989a;stop-opacity: 1" offset="100%"></stop></linearGradient><path d="M473.2 222.24C474 221.52 475.84 220.4 475.84 220.4C476.08 220.32 476.4 220.24 476.72 220.16C476.64 220.16 473.76 220.32 473.52 220.96C473.28 221.52 473.2 222.08 473.2 222.24Z" id="a20UIhsDgJ"></path><path d="M491.04 256.24C491.04 260.32 495.36 261.76 499.44 259.36C503.52 257.04 506.4 251.76 506.4 247.68C506.32 243.6 502.4 241.44 497.36 244.56C493.36 247.04 491.04 252.16 491.04 256.24Z" id="m3CFXmnwHJ"></path><path d="M494.32 255.36C494.32 258.64 497.04 259.84 500.32 257.92C503.6 256 506.32 251.76 506.32 248.48C506.32 245.2 503.6 244.08 500.32 245.92C497.04 247.84 494.32 252.08 494.32 255.36Z" id="c2cMvymNmk"></path><linearGradient id="gradienta1zOw0h5MN" gradientUnits="userSpaceOnUse" x1="494.71" y1="257.53" x2="505.9" y2="246.34"><stop style="stop-color: #f0f1f1;stop-opacity: 1" offset="0%"></stop><stop style="stop-color: #e5e6e6;stop-opacity: 1" offset="18.55%"></stop><stop style="stop-color: #c8c9ca;stop-opacity: 1" offset="51.06%"></stop><stop style="stop-color: #999b9d;stop-opacity: 1" offset="93.46%"></stop><stop style="stop-color: #919395;stop-opacity: 1" offset="100%"></stop></linearGradient><path d="M482.32 248.4C480.96 248.48 479.76 248.4 478.56 248.32C477.28 248.16 476.08 247.92 474.88 247.6C468.48 245.92 463.6 242.32 463.6 242.32C463.64 243.55 463.96 253.41 464 254.64C464.16 254.8 464.4 255.04 464.64 255.2C465.36 255.84 466.08 256.4 466.96 256.96C467.68 257.44 468.48 257.84 469.28 258.16C473.2 259.92 477.92 260.8 482.4 261.04C482.72 261.04 483.04 261.12 483.36 261.12C490.16 261.36 491.2 257.12 491.28 254.4C491.28 254.37 491.28 254.11 491.28 254.08C491.2 251.84 491.92 247.84 482.32 248.4C482.32 248.4 482.32 248.4 482.32 248.4Z" id="f3Z5Dx64ny"></path><path d="M482.32 248.48C474.5 254.34 470.15 257.59 469.28 258.24C473.2 260 477.92 260.88 482.4 261.12C482.99 260.68 485.95 258.46 491.28 254.48C491.28 254.29 491.28 254.18 491.28 254.16C491.2 251.84 491.92 247.84 482.32 248.48C482.32 248.48 482.32 248.48 482.32 248.48Z" id="bgl3qTAp3"></path><linearGradient id="gradientf3jmwSD7V2" gradientUnits="userSpaceOnUse" x1="469.26" y1="254.77" x2="491.26" y2="254.77"><stop style="stop-color: #0700aa;stop-opacity: 1" offset="0%"></stop><stop style="stop-color: #060099;stop-opacity: 1" offset="8.1%"></stop><stop style="stop-color: #040058;stop-opacity: 1" offset="40.339999999999996%"></stop><stop style="stop-color: #020028;stop-opacity: 1" offset="67.5%"></stop><stop style="stop-color: #00000b;stop-opacity: 1" offset="88.2%"></stop><stop style="stop-color: #000000;stop-opacity: 1" offset="100%"></stop></linearGradient><path d="M464.64 255.28C465.36 255.92 466.08 256.48 466.96 257.04C468.12 256.18 477.4 249.26 478.56 248.4C477.28 248.24 476 248 474.88 247.68C472.83 249.2 465.66 254.52 464.64 255.28Z" id="c5t7PHjyGy"></path><linearGradient id="gradientf3yepJqke5" gradientUnits="userSpaceOnUse" x1="464.62" y1="252.36" x2="478.55" y2="252.36"><stop style="stop-color: #060094;stop-opacity: 1" offset="0%"></stop><stop style="stop-color: #040058;stop-opacity: 1" offset="33.56%"></stop><stop style="stop-color: #020028;stop-opacity: 1" offset="63.800000000000004%"></stop><stop style="stop-color: #00000b;stop-opacity: 1" offset="86.86%"></stop><stop style="stop-color: #000000;stop-opacity: 1" offset="100%"></stop></linearGradient><path d="M493.44 254.16C493.44 256.88 492.72 259.12 491.12 260.64C489.52 262.16 487.2 262.96 484.24 262.96C484.08 262.96 483.84 262.96 483.68 262.96C474.32 262.64 466.56 260.08 462.24 255.76C461.76 255.28 461.76 254.48 462.24 253.92C462.72 253.36 463.36 253.6 463.84 254.08C467.68 257.92 475.04 260.4 483.76 260.72C486.32 260.8 488.16 259.92 489.36 258.8C490.64 257.52 490.96 255.6 490.88 254.16C490.88 254.11 490.88 253.73 490.88 253.68C490.88 252.64 490.88 251.52 490.08 250.72C489.28 250 487.36 249.2 482.72 249.44C473.84 250 465.6 245.12 462.88 243.36C462.72 243.28 462.56 243.2 462.48 243.04C462 242.56 461.84 242 461.84 241.44C461.84 241.12 462 240.8 462.08 240.56C462.08 240.56 462.08 240.56 462.08 240.56C462.48 239.76 463.2 239.28 463.44 239.04C463.84 238.8 464.16 238.56 464.56 238.8C464.54 239.05 464.42 241.03 464.4 241.28C467.12 243.04 474.64 247.36 482.4 246.8C486.96 246.48 490 247.12 491.68 248.72C493.44 250.4 493.44 252.4 493.44 253.76C493.44 253.84 493.44 254.12 493.44 254.16Z" id="g6QYg6LZKh"></path><linearGradient id="gradientd2cNOqUlit" gradientUnits="userSpaceOnUse" x1="470.6" y1="261.26" x2="481.33" y2="242.67"><stop style="stop-color: #f0f1f1;stop-opacity: 1" offset="0%"></stop><stop style="stop-color: #e5e6e6;stop-opacity: 1" offset="18.55%"></stop><stop style="stop-color: #c8c9ca;stop-opacity: 1" offset="51.06%"></stop><stop style="stop-color: #999b9d;stop-opacity: 1" offset="93.46%"></stop><stop style="stop-color: #919395;stop-opacity: 1" offset="100%"></stop></linearGradient><path d="M459.76 321.52L454.48 325.04C453.42 324.7 452.84 324.52 452.72 324.48C450.64 322.4 453.2 315.52 455.44 315.92C455.52 315.97 455.92 316.21 456.64 316.64L459.76 321.52Z" id="j6IPZZ2ri7"></path><path d="M456.64 316.8C454.29 315.89 452.98 315.38 452.72 315.28C452.72 315.28 452.72 315.28 452.64 315.2C451.84 314.64 445.36 310.48 443.68 310.48C440.48 310.48 430.24 314.08 429.44 314.88C429.36 314.96 429.36 314.96 429.36 315.04C428.8 315.84 430.4 316.8 430.4 316.8C430.4 316.8 430.32 316.88 430.16 316.88C430.15 316.89 430.09 316.95 430.08 316.96C429.92 317.04 429.68 317.2 429.44 317.36C429.36 317.44 429.28 317.52 429.12 317.6C429.11 317.61 429.05 317.67 429.04 317.68C428.64 318 428.4 318.4 428.72 318.72C429.36 319.36 431.44 319.28 431.44 319.28C431.44 319.28 430.64 320.24 431.76 320.64C432.8 321.04 437.2 320 437.68 319.84C437.69 319.84 437.71 319.84 437.76 319.84C437.76 319.84 437.76 319.84 437.76 319.84C437.76 319.84 436.88 320.64 437.44 321.2C437.84 321.6 439.12 321.36 441.44 320.88C443.76 320.4 446.08 320.24 448.4 321.44C449.52 322 453.84 324.32 453.84 324.32C454.11 324.22 455.47 323.71 457.92 322.8L457.76 322.64L456.64 316.8Z" id="f2hgRRui5Q"></path><path d="M452.72 315.36C452.72 315.36 452.72 315.36 452.64 315.28C451.84 314.72 445.36 310.56 443.68 310.56C440.48 310.56 430.24 314.16 429.44 314.96C429.36 315.04 429.36 315.04 429.36 315.12C429.28 315.44 429.36 316.08 430.16 316.16C431.68 316.24 434.4 315.76 434.96 315.6C434.5 315.73 430.78 316.75 430.32 316.88C430.32 316.88 430.24 316.96 430.08 316.96C430.07 316.97 430.01 317.03 430 317.04C429.84 317.12 429.6 317.28 429.36 317.44C429.28 317.52 429.2 317.6 429.04 317.68C429.03 317.69 428.97 317.75 428.96 317.76C428.72 318 428.72 318.24 428.88 318.48C429.84 319.44 433.76 318.32 435.2 317.84C434.81 317.98 431.67 319.14 431.28 319.28C431.28 319.28 430.96 319.92 431.92 320.16C432.96 320.4 440.24 318.56 440.64 318.48C440.43 318.57 439.39 319.02 437.52 319.84C437.52 319.84 437.52 319.84 437.52 319.84C437.52 319.92 437.52 320.4 438.16 320.4C438.8 320.4 443.84 318.8 446.48 318.8C449.12 318.8 455.2 322.24 455.2 322.24C455.36 322.26 456.16 322.37 457.6 322.56L456.64 316.88C454.29 315.97 452.98 315.46 452.72 315.36Z" id="a54bPeWYAF"></path><path d="M500.72 276.32C500.72 276.32 494.64 296.96 494.64 297.6C494.64 298.24 493.44 317.52 486 320.48C476.56 324.16 456.96 316.56 455.36 315.92C456 316.24 456.4 317.04 456.48 318.16C456.56 319.44 456.24 320.88 455.6 322.08C455.2 322.8 454.64 323.52 454 323.92C453.52 324.24 453.04 324.4 452.56 324.32C452.56 324.32 452.56 324.32 452.56 324.32C452.56 324.32 458.4 328.24 471.44 332.4C488.64 338 497.68 330.96 505.6 318.72C509.44 312.8 510.88 307.2 511.2 302.24C511.76 296.48 510.48 291.36 509.84 287.76C508.56 280.96 502.54 278.61 500.72 276.32Z" id="aGIeVjXyl"></path><linearGradient id="gradiente3ULHWRZiM" gradientUnits="userSpaceOnUse" x1="505.51" y1="279.36" x2="464.3" y2="341.87"><stop style="stop-color: #3e4ee0;stop-opacity: 1" offset="0%"></stop><stop style="stop-color: #434fdf;stop-opacity: 1" offset="13.69%"></stop><stop style="stop-color: #5353dc;stop-opacity: 1" offset="30.65%"></stop><stop style="stop-color: #6c5ad7;stop-opacity: 1" offset="49.33%"></stop><stop style="stop-color: #8f63d0;stop-opacity: 1" offset="69.27%"></stop><stop style="stop-color: #bc6fc7;stop-opacity: 1" offset="89.98%"></stop><stop style="stop-color: #d475c2;stop-opacity: 1" offset="100%"></stop></linearGradient><path d="M500.72 276.32C500.72 276.32 494.64 296.96 494.64 297.6C494.64 298.24 493.44 317.52 486 320.48C476.56 324.16 456.96 316.56 455.36 315.92C456 316.24 456.4 317.04 456.48 318.16C456.56 319.44 456.24 320.88 455.6 322.08C455.6 322.08 470 330.64 484.56 330C498.24 329.44 508.64 311.12 511.28 302.32C511.76 296.48 510.48 291.36 509.84 287.76C508.56 280.96 502.54 278.61 500.72 276.32Z" id="a2YYubM1e2"></path><linearGradient id="gradientaivv8wIoQ" gradientUnits="userSpaceOnUse" x1="455.36" y1="303.18" x2="511.39" y2="303.18"><stop style="stop-color: #3e4ee0;stop-opacity: 1" offset="0%"></stop><stop style="stop-color: #434fdf;stop-opacity: 1" offset="13.69%"></stop><stop style="stop-color: #5353dc;stop-opacity: 1" offset="30.65%"></stop><stop style="stop-color: #6c5ad7;stop-opacity: 1" offset="49.33%"></stop><stop style="stop-color: #8f63d0;stop-opacity: 1" offset="69.27%"></stop><stop style="stop-color: #bc6fc7;stop-opacity: 1" offset="89.98%"></stop><stop style="stop-color: #d475c2;stop-opacity: 1" offset="100%"></stop></linearGradient><path d="M441.52 268.72C441.52 263.29 441.52 219.83 441.52 214.4C423.84 218 407.2 223.92 393.04 232.16C380.24 239.6 370.64 248.08 364.24 257.2C364.24 262.63 364.24 306.09 364.24 311.52C370.64 302.4 380.24 293.92 393.04 286.48C407.2 278.32 423.84 272.4 441.52 268.72Z" id="e13XsI906"></path><path d="M555.68 354.56C551.2 362.32 543.84 369.2 533.76 374.96C498.16 395.52 440.16 395.52 404.56 374.96C387.44 365.04 378 351.92 378 338C378 326.08 384.88 314.72 397.68 305.52C397.44 305.52 397.12 305.6 396.88 305.6C396.48 305.6 396.08 305.6 395.68 305.52C383.44 314.8 376.8 326.08 376.8 338C376.8 352.4 386.48 365.84 404 376C422 386.4 445.6 391.6 469.2 391.6C492.8 391.6 516.4 386.4 534.4 376C544.64 370.08 552.24 363.04 556.8 355.12C556.88 354.88 556.8 354.48 556.48 354.32C556.24 354.16 555.84 354.24 555.68 354.56Z" id="ablziX4oDA"></path><linearGradient id="gradientb3SJD3y6Q6" gradientUnits="userSpaceOnUse" x1="399.59" y1="346.37" x2="559.1" y2="357.61"><stop style="stop-color: #6e3aff;stop-opacity: 1" offset="0%"></stop><stop style="stop-color: #ffffff;stop-opacity: 1" offset="100%"></stop></linearGradient><path d="M568 230.72C565.2 216.88 554.72 204.4 537.68 194.56C513.12 180.4 478.08 174.08 443.92 177.76C443.6 177.76 443.36 178.08 443.36 178.4C443.36 178.72 443.68 178.96 444 178.96C477.92 175.36 512.72 181.6 537.04 195.6C553.76 205.28 564.08 217.44 566.8 230.96C566.88 231.28 567.12 231.44 567.36 231.44C567.44 231.44 567.52 231.44 567.52 231.44C567.84 231.36 568.08 231.04 568 230.72Z" id="a2cYAOAsqp"></path><linearGradient id="gradienta55b1N2FY5" gradientUnits="userSpaceOnUse" x1="567.85" y1="231.28" x2="451.51" y2="164.1"><stop style="stop-color: #6e3aff;stop-opacity: 1" offset="0%"></stop><stop style="stop-color: #ffffff;stop-opacity: 1" offset="100%"></stop></linearGradient><path d="M555.68 267.92C551.2 275.68 543.84 282.56 533.76 288.32C498.16 308.88 440.16 308.88 404.56 288.32C387.44 278.4 378 265.28 378 251.36C378 239.44 384.88 228.08 397.68 218.88C397.44 218.88 397.12 218.96 396.88 218.96C396.48 218.96 396.08 218.96 395.68 218.88C383.44 228.16 376.8 239.44 376.8 251.36C376.8 265.76 386.48 279.2 404 289.36C422 299.76 445.6 304.96 469.2 304.96C492.8 304.96 516.4 299.76 534.4 289.36C544.64 283.44 552.24 276.4 556.8 268.48C556.88 268.24 556.8 267.84 556.48 267.68C556.24 267.52 555.84 267.6 555.68 267.92Z" id="b4DrXheMAS"></path><linearGradient id="gradientb45t7d8Z8i" gradientUnits="userSpaceOnUse" x1="399.59" y1="259.73" x2="559.11" y2="270.97"><stop style="stop-color: #6e3aff;stop-opacity: 1" offset="0%"></stop><stop style="stop-color: #ffffff;stop-opacity: 1" offset="100%"></stop></linearGradient><path d="M340.8 254.72C340.8 263.06 340.8 329.74 340.8 338.08C342.32 339.04 343.92 340 345.6 340.96C381.68 361.84 429.2 372 476.56 371.44C476.56 363.1 476.56 296.42 476.56 288.08C429.28 288.64 381.76 278.48 345.6 257.6C343.92 256.64 342.4 255.68 340.8 254.72Z" id="d64XsVqor9"></path><path d="M516.16 330.48C516.16 335.38 516.16 374.62 516.16 379.52C532.16 376.24 547.2 370.88 560 363.52C571.6 356.8 580.24 349.12 586 340.88C586 335.98 586 296.74 586 291.84C580.24 300 571.6 307.76 560 314.48C547.2 321.84 532.16 327.2 516.16 330.48Z" id="a14MY45U8k"></path><path d="M304.28 125.76L430.84 463.36C430.84 463.46 430.84 463.51 430.84 463.52C430.84 463.84 430.92 464.08 430.92 464.32C432.12 470.72 437.16 476.96 445.88 481.92C466.2 493.36 499.24 493.36 519.56 481.92C528.84 476.72 533.88 470 534.68 463.2C542.08 440.7 579.06 328.22 645.64 125.76L304.28 125.76Z" id="a5uBabWPGN"></path><linearGradient id="gradienta45VAQW5ym" gradientUnits="userSpaceOnUse" x1="474.96" y1="490.5" x2="474.96" y2="125.76"><stop style="stop-color: #f6f6f7;stop-opacity: 0.4" offset="0%"></stop><stop style="stop-color: #f6f6f7;stop-opacity: 0" offset="100%"></stop></linearGradient><path d="M496.16 193.32C507.21 193.32 516.16 202.27 516.16 213.32C516.16 266.26 516.16 405.1 516.16 458.04C516.16 469.09 507.21 478.04 496.16 478.04C486.64 478.04 478.08 478.04 468.56 478.04C457.51 478.04 448.56 469.09 448.56 458.04C448.56 405.1 448.56 266.26 448.56 213.32C448.56 202.27 457.51 193.32 468.56 193.32C478.08 193.32 486.64 193.32 496.16 193.32Z" id="aV0HpTxuS"></path><path d="M430.74 329L478.3 280.96L526.34 328.52L478.78 376.56L430.74 329Z" id="a6b3k3lSHr"></path><path d="M509.53 328.76C509.53 344.78 495.64 357.78 478.54 357.78C461.43 357.78 447.55 344.78 447.55 328.76C447.55 312.75 461.43 299.75 478.54 299.75C495.64 299.75 509.53 312.75 509.53 328.76Z" id="c2r2NGmuEK"></path><path d="M482.17 299.75L482.22 299.76L482.28 299.77L482.33 299.78L482.38 299.8L482.43 299.82L482.48 299.84L482.53 299.86L482.57 299.89L482.62 299.92L482.66 299.95L482.7 299.98L482.74 300.02L482.78 300.06L482.82 300.1L482.86 300.14L482.89 300.18L482.93 300.23L482.96 300.28L483 300.33L483.03 300.38L483.06 300.43L483.09 300.49L483.12 300.55L483.15 300.6L483.18 300.66L483.21 300.73L483.24 300.79L483.26 300.85L483.29 300.92L483.32 300.99L483.34 301.05L483.37 301.12L483.39 301.19L483.42 301.27L483.44 301.34L483.47 301.41L483.49 301.48L483.52 301.56L484.79 306.27L485.19 306.39L486.07 306.7L486.93 307.04L487.78 307.41L488.61 307.82L488.68 307.85L492.97 305.41L493.04 305.37L493.11 305.34L493.18 305.3L493.25 305.27L493.32 305.23L493.38 305.2L493.45 305.17L493.52 305.14L493.59 305.11L493.65 305.08L493.72 305.06L493.78 305.03L493.85 305.01L493.91 304.99L493.97 304.97L494.03 304.95L494.1 304.93L494.16 304.91L494.22 304.9L494.28 304.89L494.33 304.88L494.39 304.87L494.45 304.86L494.51 304.86L494.56 304.86L494.62 304.86L494.67 304.86L494.73 304.87L494.78 304.87L494.83 304.88L494.88 304.9L494.93 304.91L494.98 304.93L495.03 304.95L495.08 304.98L495.12 305.01L495.17 305.04L495.22 305.07L495.26 305.11L495.3 305.15L501.54 311.3L501.58 311.35L501.62 311.39L501.65 311.44L501.69 311.48L501.71 311.53L501.74 311.58L501.76 311.63L501.78 311.68L501.8 311.73L501.82 311.78L501.83 311.83L501.84 311.89L501.85 311.94L501.85 312L501.85 312.05L501.85 312.11L501.85 312.17L501.85 312.23L501.84 312.28L501.83 312.34L501.82 312.4L501.81 312.46L501.79 312.53L501.77 312.59L501.75 312.65L501.73 312.71L501.71 312.77L501.69 312.84L501.66 312.9L501.63 312.96L501.6 313.03L501.57 313.09L501.54 313.16L501.51 313.22L501.47 313.29L501.44 313.35L501.4 313.42L501.36 313.48L501.32 313.55L501.28 313.61L498.8 317.84L498.85 317.93L499.26 318.75L499.64 319.59L499.99 320.44L500.3 321.31L500.42 321.7L505.19 322.96L505.27 322.98L505.34 322.99L505.42 323.01L505.49 323.03L505.56 323.05L505.63 323.08L505.7 323.1L505.77 323.12L505.84 323.15L505.91 323.17L505.97 323.2L506.04 323.22L506.1 323.25L506.16 323.28L506.22 323.31L506.28 323.34L506.33 323.37L506.39 323.4L506.44 323.44L506.49 323.47L506.54 323.51L506.59 323.54L506.63 323.58L506.67 323.62L506.72 323.66L506.75 323.7L506.79 323.74L506.82 323.79L506.86 323.83L506.88 323.88L506.91 323.92L506.94 323.97L506.96 324.02L506.98 324.07L506.99 324.13L507.01 324.18L507.02 324.24L507.02 324.29L507.03 324.35L507.03 324.41L507.03 333.11L507.03 333.17L507.02 333.23L507.02 333.29L507.01 333.34L506.99 333.39L506.98 333.44L506.96 333.49L506.94 333.54L506.91 333.59L506.88 333.63L506.86 333.68L506.82 333.72L506.79 333.76L506.75 333.8L506.72 333.84L506.67 333.88L506.63 333.91L506.59 333.95L506.54 333.98L506.49 334.02L506.44 334.05L506.39 334.08L506.33 334.11L506.28 334.14L506.22 334.17L506.16 334.2L506.1 334.23L506.04 334.26L505.97 334.29L505.91 334.31L505.84 334.34L505.77 334.37L505.7 334.39L505.63 334.42L505.56 334.44L505.49 334.47L505.42 334.49L505.34 334.52L505.27 334.54L505.19 334.56L500.42 335.82L500.3 336.21L499.99 337.08L499.64 337.94L499.26 338.78L498.85 339.6L498.81 339.68L501.28 343.89L501.32 343.96L501.36 344.02L501.4 344.09L501.44 344.15L501.47 344.22L501.51 344.28L501.54 344.35L501.57 344.41L501.6 344.48L501.63 344.54L501.66 344.61L501.69 344.67L501.71 344.73L501.73 344.79L501.75 344.86L501.77 344.92L501.79 344.98L501.81 345.04L501.82 345.1L501.83 345.16L501.84 345.22L501.85 345.28L501.85 345.34L501.85 345.4L501.85 345.45L501.85 345.51L501.85 345.56L501.84 345.62L501.83 345.67L501.82 345.72L501.8 345.78L501.78 345.83L501.76 345.88L501.74 345.93L501.71 345.98L501.69 346.02L501.65 346.07L501.62 346.11L501.58 346.16L501.54 346.2L495.3 352.36L495.26 352.4L495.22 352.43L495.17 352.47L495.12 352.5L495.08 352.53L495.03 352.55L494.98 352.57L494.93 352.59L494.88 352.61L494.83 352.62L494.78 352.63L494.73 352.64L494.67 352.65L494.62 352.65L494.56 352.65L494.51 352.65L494.45 352.64L494.39 352.64L494.33 352.63L494.28 352.62L494.22 352.61L494.16 352.59L494.1 352.58L494.03 352.56L493.97 352.54L493.91 352.52L493.85 352.5L493.78 352.47L493.72 352.45L493.65 352.42L493.59 352.39L493.52 352.36L493.45 352.33L493.38 352.3L493.32 352.27L493.25 352.24L493.18 352.2L493.11 352.17L493.04 352.14L492.97 352.1L488.7 349.66L488.61 349.71L487.78 350.11L486.93 350.48L486.07 350.83L485.19 351.13L484.79 351.26L483.52 355.96L483.49 356.04L483.47 356.11L483.44 356.19L483.42 356.26L483.39 356.33L483.37 356.4L483.34 356.47L483.32 356.54L483.29 356.6L483.26 356.67L483.24 356.73L483.21 356.8L483.18 356.86L483.15 356.92L483.12 356.98L483.09 357.03L483.06 357.09L483.03 357.14L483 357.2L482.96 357.25L482.93 357.29L482.89 357.34L482.86 357.38L482.82 357.43L482.78 357.47L482.74 357.51L482.7 357.54L482.66 357.57L482.62 357.61L482.57 357.63L482.53 357.66L482.48 357.68L482.43 357.71L482.38 357.72L482.33 357.74L482.28 357.75L482.22 357.76L482.17 357.77L482.11 357.78L482.05 357.78L473.23 357.78L473.17 357.78L473.11 357.77L473.06 357.76L473 357.75L472.95 357.74L472.89 357.72L472.84 357.71L472.79 357.68L472.74 357.66L472.69 357.63L472.65 357.61L472.6 357.57L472.56 357.54L472.51 357.51L472.47 357.47L472.43 357.43L472.39 357.38L472.35 357.34L472.32 357.29L472.28 357.25L472.25 357.2L472.21 357.14L472.18 357.09L472.15 357.03L472.12 356.98L472.09 356.92L472.06 356.86L472.03 356.8L472 356.73L471.98 356.67L471.95 356.6L471.93 356.54L471.9 356.47L471.88 356.4L471.86 356.33L471.84 356.26L471.82 356.19L471.8 356.11L471.78 356.04L471.76 355.96L470.49 351.26L470.09 351.13L469.21 350.83L468.35 350.48L467.5 350.11L466.67 349.71L466.57 349.65L462.31 352.08L462.25 352.12L462.18 352.16L462.12 352.2L462.05 352.24L461.98 352.27L461.92 352.31L461.85 352.34L461.79 352.37L461.72 352.4L461.66 352.43L461.59 352.46L461.53 352.48L461.46 352.51L461.4 352.53L461.34 352.55L461.27 352.57L461.21 352.59L461.15 352.6L461.09 352.62L461.03 352.63L460.97 352.64L460.91 352.64L460.85 352.65L460.79 352.65L460.73 352.65L460.68 352.65L460.62 352.64L460.57 352.64L460.51 352.63L460.46 352.61L460.41 352.6L460.35 352.58L460.3 352.56L460.25 352.54L460.2 352.51L460.16 352.48L460.11 352.45L460.06 352.42L460.02 352.38L459.98 352.34L453.74 346.18L453.7 346.14L453.66 346.1L453.63 346.05L453.6 346.01L453.57 345.96L453.54 345.91L453.52 345.87L453.5 345.82L453.49 345.77L453.47 345.72L453.46 345.66L453.45 345.61L453.45 345.56L453.44 345.51L453.44 345.45L453.45 345.4L453.45 345.34L453.46 345.28L453.46 345.23L453.47 345.17L453.49 345.11L453.5 345.05L453.52 344.99L453.54 344.93L453.56 344.87L453.58 344.81L453.6 344.74L453.62 344.68L453.65 344.62L453.68 344.55L453.7 344.49L453.73 344.42L453.76 344.35L453.8 344.29L453.83 344.22L453.86 344.15L453.9 344.08L453.93 344.02L453.97 343.95L454 343.88L456.47 339.67L456.43 339.6L456.02 338.78L455.64 337.94L455.29 337.08L454.98 336.21L454.86 335.82L450.09 334.56L450.01 334.54L449.94 334.52L449.86 334.49L449.79 334.47L449.72 334.44L449.65 334.42L449.58 334.39L449.51 334.37L449.44 334.34L449.37 334.31L449.31 334.29L449.24 334.26L449.18 334.23L449.12 334.2L449.06 334.17L449 334.14L448.95 334.11L448.89 334.08L448.84 334.05L448.79 334.02L448.74 333.98L448.69 333.95L448.65 333.91L448.61 333.88L448.56 333.84L448.53 333.8L448.49 333.76L448.46 333.72L448.42 333.68L448.4 333.63L448.37 333.59L448.34 333.54L448.32 333.49L448.3 333.44L448.29 333.39L448.27 333.34L448.26 333.29L448.26 333.23L448.25 333.17L448.25 333.11L448.25 324.41L448.25 324.35L448.26 324.29L448.26 324.24L448.27 324.18L448.29 324.13L448.3 324.07L448.32 324.02L448.34 323.97L448.37 323.92L448.4 323.88L448.42 323.83L448.46 323.79L448.49 323.74L448.53 323.7L448.56 323.66L448.61 323.62L448.65 323.58L448.69 323.54L448.74 323.51L448.79 323.47L448.84 323.44L448.89 323.4L448.95 323.37L449 323.34L449.06 323.31L449.12 323.28L449.18 323.25L449.24 323.22L449.31 323.2L449.37 323.17L449.44 323.15L449.51 323.12L449.58 323.1L449.65 323.08L449.72 323.05L449.79 323.03L449.86 323.01L449.94 322.99L450.01 322.98L450.09 322.96L454.86 321.7L454.98 321.31L455.29 320.44L455.64 319.59L456.02 318.75L456.43 317.93L456.47 317.84L454 313.63L453.97 313.56L453.93 313.49L453.9 313.42L453.86 313.35L453.83 313.29L453.8 313.22L453.76 313.15L453.73 313.08L453.7 313.02L453.68 312.95L453.65 312.89L453.62 312.83L453.6 312.76L453.58 312.7L453.56 312.64L453.54 312.58L453.52 312.52L453.5 312.46L453.49 312.4L453.47 312.34L453.46 312.28L453.46 312.22L453.45 312.17L453.45 312.11L453.44 312.05L453.44 312L453.45 311.95L453.45 311.89L453.46 311.84L453.47 311.79L453.49 311.74L453.5 311.69L453.52 311.64L453.54 311.59L453.57 311.55L453.6 311.5L453.63 311.45L453.66 311.41L453.7 311.37L453.74 311.32L459.98 305.17L460.02 305.13L460.06 305.09L460.11 305.05L460.16 305.02L460.2 304.99L460.25 304.97L460.3 304.94L460.35 304.92L460.41 304.91L460.46 304.89L460.51 304.88L460.57 304.87L460.62 304.86L460.68 304.86L460.73 304.86L460.79 304.86L460.85 304.86L460.91 304.86L460.97 304.87L461.03 304.88L461.09 304.89L461.15 304.9L461.21 304.92L461.27 304.94L461.34 304.95L461.4 304.97L461.46 305L461.53 305.02L461.59 305.05L461.66 305.07L461.72 305.1L461.79 305.13L461.85 305.17L461.92 305.2L461.98 305.23L462.05 305.27L462.12 305.31L462.18 305.34L462.25 305.38L462.31 305.42L466.58 307.86L466.67 307.82L467.5 307.41L468.35 307.04L469.21 306.7L470.09 306.39L470.49 306.27L471.76 301.56L471.78 301.48L471.8 301.41L471.82 301.34L471.84 301.27L471.86 301.19L471.88 301.12L471.9 301.05L471.93 300.99L471.95 300.92L471.98 300.85L472 300.79L472.03 300.73L472.06 300.66L472.09 300.6L472.12 300.55L472.15 300.49L472.18 300.43L472.21 300.38L472.25 300.33L472.28 300.28L472.32 300.23L472.35 300.18L472.39 300.14L472.43 300.1L472.47 300.06L472.51 300.02L472.56 299.98L472.6 299.95L472.65 299.92L472.69 299.89L472.74 299.86L472.79 299.84L472.84 299.82L472.89 299.8L472.95 299.78L473 299.77L473.06 299.76L473.11 299.75L473.17 299.75L473.23 299.75L482.05 299.75L482.11 299.75L482.17 299.75ZM476.59 316.11L476.07 316.16L475.55 316.23L475.05 316.33L474.55 316.44L474.06 316.57L473.58 316.71L473.1 316.88L472.64 317.06L472.18 317.27L471.73 317.48L471.29 317.72L470.87 317.97L470.45 318.24L470.05 318.52L469.65 318.81L469.27 319.12L468.9 319.45L468.55 319.79L468.21 320.14L467.88 320.5L467.56 320.88L467.26 321.26L466.98 321.66L466.71 322.07L466.45 322.5L466.22 322.93L466 323.37L465.79 323.82L465.61 324.28L465.44 324.75L465.29 325.23L465.16 325.71L465.04 326.2L464.95 326.7L464.88 327.21L464.82 327.72L464.79 328.24L464.78 328.76L464.79 329.28L464.82 329.8L464.88 330.31L464.95 330.82L465.04 331.32L465.16 331.81L465.29 332.3L465.44 332.77L465.61 333.24L465.79 333.7L466 334.15L466.22 334.6L466.45 335.03L466.71 335.45L466.98 335.86L467.26 336.26L467.56 336.65L467.88 337.02L468.21 337.39L468.55 337.74L468.9 338.08L469.27 338.4L469.65 338.71L470.05 339.01L470.45 339.29L470.87 339.55L471.29 339.8L471.73 340.04L472.18 340.26L472.64 340.46L473.1 340.64L473.58 340.81L474.06 340.96L474.55 341.09L475.05 341.2L475.55 341.29L476.07 341.36L476.59 341.41L477.11 341.45L477.64 341.46L478.17 341.45L478.69 341.41L479.21 341.36L479.73 341.29L480.23 341.2L480.73 341.09L481.22 340.96L481.7 340.81L482.18 340.64L482.64 340.46L483.1 340.26L483.55 340.04L483.99 339.8L484.41 339.55L484.83 339.29L485.23 339.01L485.63 338.71L486.01 338.4L486.38 338.08L486.73 337.74L487.07 337.39L487.4 337.02L487.72 336.65L488.02 336.26L488.3 335.86L488.57 335.45L488.83 335.03L489.06 334.6L489.28 334.15L489.49 333.7L489.67 333.24L489.84 332.77L489.99 332.3L490.12 331.81L490.24 331.32L490.33 330.82L490.4 330.31L490.46 329.8L490.49 329.28L490.5 328.76L490.49 328.24L490.46 327.72L490.4 327.21L490.33 326.7L490.24 326.2L490.12 325.71L489.99 325.23L489.84 324.75L489.67 324.28L489.49 323.82L489.28 323.37L489.06 322.93L488.83 322.5L488.57 322.07L488.3 321.66L488.02 321.26L487.72 320.88L487.4 320.5L487.07 320.14L486.73 319.79L486.38 319.45L486.01 319.12L485.63 318.81L485.23 318.52L484.83 318.24L484.41 317.97L483.99 317.72L483.55 317.48L483.1 317.27L482.64 317.06L482.18 316.88L481.7 316.71L481.22 316.57L480.73 316.44L480.23 316.33L479.73 316.23L479.21 316.16L478.69 316.11L478.17 316.08L477.64 316.07L477.11 316.08L476.59 316.11Z" id="b28VEpB548"></path></defs><g><g><g><use xlink:href="#g1gYXvSQXP" opacity="1" fill="url(#gradientbZyxd90ev)"></use><g><use xlink:href="#g1gYXvSQXP" opacity="1" fill-opacity="0" stroke="#000000" stroke-width="1" stroke-opacity="0"></use></g></g><g><use xlink:href="#c3RvHhYVNH" opacity="1" fill="url(#gradienta3zJXTZjUL)"></use><g><use xlink:href="#c3RvHhYVNH" opacity="1" fill-opacity="0" stroke="#000000" stroke-width="1" stroke-opacity="0"></use></g></g><g><use xlink:href="#ayiB42bVy" opacity="1" fill="url(#gradientatLUFjaQI)"></use><g><use xlink:href="#ayiB42bVy" opacity="1" fill-opacity="0" stroke="#000000" stroke-width="1" stroke-opacity="0"></use></g></g><g><use xlink:href="#b2PTzmLMoX" opacity="1" fill="url(#gradientbHdohGJ6D)"></use><g><use xlink:href="#b2PTzmLMoX" opacity="1" fill-opacity="0" stroke="#000000" stroke-width="1" stroke-opacity="0"></use></g></g><g><use xlink:href="#b2kFBgVrVf" opacity="1" fill="url(#gradientaaEu1XOuJ)"></use><g><use xlink:href="#b2kFBgVrVf" opacity="1" fill-opacity="0" stroke="#000000" stroke-width="1" stroke-opacity="0"></use></g></g><g><use xlink:href="#bdhexMnBO" opacity="1" fill="url(#gradientd2pbJfVhtY)"></use><g><use xlink:href="#bdhexMnBO" opacity="1" fill-opacity="0" stroke="#000000" stroke-width="1" stroke-opacity="0"></use></g></g><g><use xlink:href="#a35xoQ7TmP" opacity="1" fill="#6376fa" fill-opacity="1"></use><g><use xlink:href="#a35xoQ7TmP" opacity="1" fill-opacity="0" stroke="#000000" stroke-width="1" stroke-opacity="0"></use></g></g><g><use xlink:href="#b3zQUD8KDZ" opacity="1" fill="#6376fa" fill-opacity="1"></use><g><use xlink:href="#b3zQUD8KDZ" opacity="1" fill-opacity="0" stroke="#000000" stroke-width="1" stroke-opacity="0"></use></g></g><g><use xlink:href="#efTA4eWiJ" opacity="1" fill="#212463" fill-opacity="1"></use><g><use xlink:href="#efTA4eWiJ" opacity="1" fill-opacity="0" stroke="#000000" stroke-width="1" stroke-opacity="0"></use></g></g><g><use xlink:href="#a2dTAt4SZI" opacity="1" fill="#e1c39c" fill-opacity="1"></use><g><use xlink:href="#a2dTAt4SZI" opacity="1" fill-opacity="0" stroke="#000000" stroke-width="1" stroke-opacity="0"></use></g></g><g><use xlink:href="#a1m1dZ5k90" opacity="1" fill="#bc916e" fill-opacity="1"></use><g><use xlink:href="#a1m1dZ5k90" opacity="1" fill-opacity="0" stroke="#000000" stroke-width="1" stroke-opacity="0"></use></g></g><g><use xlink:href="#c171zBJO0X" opacity="1" fill="url(#gradientb2h1b3lPzB)"></use><g><use xlink:href="#c171zBJO0X" opacity="1" fill-opacity="0" stroke="#000000" stroke-width="1" stroke-opacity="0"></use></g></g><g><use xlink:href="#c14gLo4d4z" opacity="1" fill="url(#gradientdcmQomYeX)"></use><g><use xlink:href="#c14gLo4d4z" opacity="1" fill-opacity="0" stroke="#000000" stroke-width="1" stroke-opacity="0"></use></g></g><g><use xlink:href="#e4O9d2VVT" opacity="1" fill="url(#gradientb13WX92iRd)"></use><g><use xlink:href="#e4O9d2VVT" opacity="1" fill-opacity="0" stroke="#000000" stroke-width="1" stroke-opacity="0"></use></g></g><g><use xlink:href="#aqwifU5M1" opacity="1" fill="url(#gradientd2sytdnqrO)"></use><g><use xlink:href="#aqwifU5M1" opacity="1" fill-opacity="0" stroke="#000000" stroke-width="1" stroke-opacity="0"></use></g></g><g><use xlink:href="#e45WYRw5D1" opacity="1" fill="#d8ae8b" fill-opacity="1"></use><g><use xlink:href="#e45WYRw5D1" opacity="1" fill-opacity="0" stroke="#000000" stroke-width="1" stroke-opacity="0"></use></g></g><g><use xlink:href="#biMD6kGTt" opacity="1" fill="url(#gradienta2tnzugCHd)"></use><g><use xlink:href="#biMD6kGTt" opacity="1" fill-opacity="0" stroke="#000000" stroke-width="1" stroke-opacity="0"></use></g></g><g><use xlink:href="#d2oRAah1f8" opacity="1" fill="#d8ae8b" fill-opacity="1"></use><g><use xlink:href="#d2oRAah1f8" opacity="1" fill-opacity="0" stroke="#000000" stroke-width="1" stroke-opacity="0"></use></g></g><g><use xlink:href="#jz9bE2OfA" opacity="1" fill="url(#gradientc2UnOvzDJo)"></use><g><use xlink:href="#jz9bE2OfA" opacity="1" fill-opacity="0" stroke="#000000" stroke-width="1" stroke-opacity="0"></use></g></g><g><use xlink:href="#blsyVFkv5" opacity="1" fill="url(#gradienta1NL5FXEOy)"></use><g><use xlink:href="#blsyVFkv5" opacity="1" fill-opacity="0" stroke="#000000" stroke-width="1" stroke-opacity="0"></use></g></g><g><use xlink:href="#aD4uQzmsw" opacity="1" fill="url(#gradientb4G59C44QT)"></use><g><use xlink:href="#aD4uQzmsw" opacity="1" fill-opacity="0" stroke="#000000" stroke-width="1" stroke-opacity="0"></use></g></g><g><use xlink:href="#f2szpa5o5x" opacity="1" fill="#d8ae8b" fill-opacity="1"></use><g><use xlink:href="#f2szpa5o5x" opacity="1" fill-opacity="0" stroke="#000000" stroke-width="1" stroke-opacity="0"></use></g></g><g><use xlink:href="#b7vCvRallm" opacity="1" fill="#853073" fill-opacity="1"></use><g><use xlink:href="#b7vCvRallm" opacity="1" fill-opacity="0" stroke="#000000" stroke-width="1" stroke-opacity="0"></use></g></g><g><use xlink:href="#b39vo5NzpL" opacity="1" fill="#9e3d89" fill-opacity="1"></use><g><use xlink:href="#b39vo5NzpL" opacity="1" fill-opacity="0" stroke="#000000" stroke-width="1" stroke-opacity="0"></use></g></g><g><use xlink:href="#m3qIvTU7g0" opacity="1" fill="#d8ae8b" fill-opacity="1"></use><g><use xlink:href="#m3qIvTU7g0" opacity="1" fill-opacity="0" stroke="#000000" stroke-width="1" stroke-opacity="0"></use></g></g><g><use xlink:href="#j3ZQ92NLix" opacity="1" fill="#853073" fill-opacity="1"></use><g><use xlink:href="#j3ZQ92NLix" opacity="1" fill-opacity="0" stroke="#000000" stroke-width="1" stroke-opacity="0"></use></g></g><g><use xlink:href="#a1NragaqhH" opacity="1" fill="#e1c39c" fill-opacity="1"></use><g><use xlink:href="#a1NragaqhH" opacity="1" fill-opacity="0" stroke="#000000" stroke-width="1" stroke-opacity="0"></use></g></g><g><use xlink:href="#m6QvT85LeD" opacity="1" fill="#853073" fill-opacity="1"></use><g><use xlink:href="#m6QvT85LeD" opacity="1" fill-opacity="0" stroke="#000000" stroke-width="1" stroke-opacity="0"></use></g></g><g><use xlink:href="#gGkVe4dDn" opacity="1" fill="#853073" fill-opacity="1"></use><g><use xlink:href="#gGkVe4dDn" opacity="1" fill-opacity="0" stroke="#000000" stroke-width="1" stroke-opacity="0"></use></g></g><g><use xlink:href="#a6i6vRoD3" opacity="1" fill="#9e3d89" fill-opacity="1"></use><g><use xlink:href="#a6i6vRoD3" opacity="1" fill-opacity="0" stroke="#000000" stroke-width="1" stroke-opacity="0"></use></g></g><g><use xlink:href="#a6lw5h19B" opacity="1" fill="#9e3d89" fill-opacity="1"></use><g><use xlink:href="#a6lw5h19B" opacity="1" fill-opacity="0" stroke="#000000" stroke-width="1" stroke-opacity="0"></use></g></g><g><use xlink:href="#c3YXDEypC" opacity="1" fill="#e1c39c" fill-opacity="1"></use><g><use xlink:href="#c3YXDEypC" opacity="1" fill-opacity="0" stroke="#000000" stroke-width="1" stroke-opacity="0"></use></g></g><g><use xlink:href="#b3iNk416il" opacity="1" fill="#e1c39c" fill-opacity="1"></use><g><use xlink:href="#b3iNk416il" opacity="1" fill-opacity="0" stroke="#000000" stroke-width="1" stroke-opacity="0"></use></g></g><g><use xlink:href="#azExMpygu" opacity="1" fill="url(#gradientc91lv2zvZ)"></use><g><use xlink:href="#azExMpygu" opacity="1" fill-opacity="0" stroke="#000000" stroke-width="1" stroke-opacity="0"></use></g></g><g><use xlink:href="#c1KgunZWNH" opacity="1" fill="#808083" fill-opacity="1"></use><g><use xlink:href="#c1KgunZWNH" opacity="1" fill-opacity="0" stroke="#000000" stroke-width="1" stroke-opacity="0"></use></g></g><g><use xlink:href="#b74pwH1L2e" opacity="1" fill="url(#gradientc18cD3xMmP)"></use><g><use xlink:href="#b74pwH1L2e" opacity="1" fill-opacity="0" stroke="#000000" stroke-width="1" stroke-opacity="0"></use></g></g><g><use xlink:href="#a20UIhsDgJ" opacity="1" fill="#59595b" fill-opacity="1"></use><g><use xlink:href="#a20UIhsDgJ" opacity="1" fill-opacity="0" stroke="#000000" stroke-width="1" stroke-opacity="0"></use></g></g><g><use xlink:href="#m3CFXmnwHJ" opacity="1" fill="#2d2d99" fill-opacity="1"></use><g><use xlink:href="#m3CFXmnwHJ" opacity="1" fill-opacity="0" stroke="#000000" stroke-width="1" stroke-opacity="0"></use></g></g><g><use xlink:href="#c2cMvymNmk" opacity="1" fill="url(#gradienta1zOw0h5MN)"></use><g><use xlink:href="#c2cMvymNmk" opacity="1" fill-opacity="0" stroke="#000000" stroke-width="1" stroke-opacity="0"></use></g></g><g><use xlink:href="#f3Z5Dx64ny" opacity="1" fill="#212463" fill-opacity="1"></use><g><use xlink:href="#f3Z5Dx64ny" opacity="1" fill-opacity="0" stroke="#000000" stroke-width="1" stroke-opacity="0"></use></g></g><g><use xlink:href="#bgl3qTAp3" opacity="1" fill="url(#gradientf3jmwSD7V2)"></use><g><use xlink:href="#bgl3qTAp3" opacity="1" fill-opacity="0" stroke="#000000" stroke-width="1" stroke-opacity="0"></use></g></g><g><use xlink:href="#c5t7PHjyGy" opacity="1" fill="url(#gradientf3yepJqke5)"></use><g><use xlink:href="#c5t7PHjyGy" opacity="1" fill-opacity="0" stroke="#000000" stroke-width="1" stroke-opacity="0"></use></g></g><g><use xlink:href="#g6QYg6LZKh" opacity="1" fill="url(#gradientd2cNOqUlit)"></use><g><use xlink:href="#g6QYg6LZKh" opacity="1" fill-opacity="0" stroke="#000000" stroke-width="1" stroke-opacity="0"></use></g></g><g><use xlink:href="#j6IPZZ2ri7" opacity="1" fill="#212463" fill-opacity="1"></use><g><use xlink:href="#j6IPZZ2ri7" opacity="1" fill-opacity="0" stroke="#000000" stroke-width="1" stroke-opacity="0"></use></g></g><g><use xlink:href="#f2hgRRui5Q" opacity="1" fill="#e1c39c" fill-opacity="1"></use><g><use xlink:href="#f2hgRRui5Q" opacity="1" fill-opacity="0" stroke="#000000" stroke-width="1" stroke-opacity="0"></use></g></g><g><use xlink:href="#a54bPeWYAF" opacity="1" fill="#bc916e" fill-opacity="1"></use><g><use xlink:href="#a54bPeWYAF" opacity="1" fill-opacity="0" stroke="#000000" stroke-width="1" stroke-opacity="0"></use></g></g><g><use xlink:href="#aGIeVjXyl" opacity="1" fill="url(#gradiente3ULHWRZiM)"></use><g><use xlink:href="#aGIeVjXyl" opacity="1" fill-opacity="0" stroke="#000000" stroke-width="1" stroke-opacity="0"></use></g></g><g><use xlink:href="#a2YYubM1e2" opacity="1" fill="url(#gradientaivv8wIoQ)"></use><g><use xlink:href="#a2YYubM1e2" opacity="1" fill-opacity="0" stroke="#000000" stroke-width="1" stroke-opacity="0"></use></g></g><g><use xlink:href="#e13XsI906" opacity="1" fill="#6376fa" fill-opacity="1"></use><g><use xlink:href="#e13XsI906" opacity="1" fill-opacity="0" stroke="#000000" stroke-width="1" stroke-opacity="0"></use></g></g><g><use xlink:href="#ablziX4oDA" opacity="1" fill="url(#gradientb3SJD3y6Q6)"></use><g><use xlink:href="#ablziX4oDA" opacity="1" fill-opacity="0" stroke="#000000" stroke-width="1" stroke-opacity="0"></use></g></g><g><use xlink:href="#a2cYAOAsqp" opacity="1" fill="url(#gradienta55b1N2FY5)"></use><g><use xlink:href="#a2cYAOAsqp" opacity="1" fill-opacity="0" stroke="#000000" stroke-width="1" stroke-opacity="0"></use></g></g><g><use xlink:href="#b4DrXheMAS" opacity="1" fill="url(#gradientb45t7d8Z8i)"></use><g><use xlink:href="#b4DrXheMAS" opacity="1" fill-opacity="0" stroke="#000000" stroke-width="1" stroke-opacity="0"></use></g></g><g><use xlink:href="#d64XsVqor9" opacity="1" fill="#6376fa" fill-opacity="1"></use><g><use xlink:href="#d64XsVqor9" opacity="1" fill-opacity="0" stroke="#000000" stroke-width="1" stroke-opacity="0"></use></g></g><g><use xlink:href="#a14MY45U8k" opacity="1" fill="#6376fa" fill-opacity="1"></use><g><use xlink:href="#a14MY45U8k" opacity="1" fill-opacity="0" stroke="#000000" stroke-width="1" stroke-opacity="0"></use></g></g><g><use xlink:href="#a5uBabWPGN" opacity="1" fill="url(#gradienta45VAQW5ym)"></use><g><use xlink:href="#a5uBabWPGN" opacity="1" fill-opacity="0" stroke="#000000" stroke-width="1" stroke-opacity="0"></use></g></g><g><use xlink:href="#aV0HpTxuS" opacity="1" fill="#8291fb" fill-opacity="1"></use></g><g><use xlink:href="#a6b3k3lSHr" opacity="1" fill="#7e007e" fill-opacity="1"></use></g><g><use xlink:href="#c2r2NGmuEK" opacity="1" fill="#6376fa" fill-opacity="1"></use></g><g><use xlink:href="#b28VEpB548" opacity="1" fill="#e1287c" fill-opacity="1"></use></g></g></g></svg>